# AST/ASF file generated using VICON BodyLanguage
# -----------------------------------------------
:version 1.10
:name VICON
:units
  mass 1.0
  length 0.45
  angle deg
:documentation
   .ast/.asf automatically generated from VICON data using
   VICON BodyBuilder and BodyLanguage model FoxedUp or BRILLIANT.MOD
:root
   order TX TY TZ RX RY RZ
   axis XYZ
   position 0 0 0  
   orientation 0 0 0 
:bonedata
  begin
     id 1 
     name lhipjoint
     direction 0.567149 -0.783011 0.255413 
     length 2.28399 
     axis 0 0 0  XYZ
  end
  begin
     id 2 
     name lfemur
     direction 0.34202 -0.939693 0  
     length 7.34031  
     axis 0 0 20  XYZ
    dof rx ry rz
    limits (-160.0 20.0)
           (-70.0 70.0)
           (-60.0 70.0)
  end
  begin
     id 3 
     name ltibia
     direction 0.34202 -0.939693 0   
     length 6.9833   
     axis 0 0 20   XYZ
    dof rx
    limits (-10.0 170.0)
  end
  begin
     id 4 
     name lfoot
     direction 0.136498 -0.375025 0.91691   
     length 2.33665   
     axis -90 7.62852e-016 20   XYZ
    dof rx rz
    limits (-45.0 90.0)
           (-70.0 20.0)
  end
  begin
     id 5 
     name ltoes
     direction 1.5367e-011 -4.21617e-011 1   
     length 1.15039   
     axis -90 7.62852e-016 20   XYZ
    dof rx
    limits (-90.0 20.0)
  end
  begin
     id 6 
     name rhipjoint
     direction -0.602854 -0.758518 0.247423   
     length 2.35775  
     axis 0 0 0  XYZ 
  end
  begin
     id 7 
     name rfemur
     direction -0.34202 -0.939693 0   
     length 7.43932   
     axis 0 0 -20   XYZ
    dof rx ry rz
    limits (-160.0 20.0)
           (-70.0 70.0)
           (-70.0 60.0)
  end
  begin
     id 8 
     name rtibia
     direction -0.34202 -0.939693 0   
     length 7.11893   
     axis 0 0 -20   XYZ
    dof rx
    limits (-10.0 170.0)
 end
 begin
     id 9 
     name rfoot
     direction -0.131771 -0.362037 0.922803   
     length 2.53019  
     axis -90 -7.62852e-016 -20   XYZ
    dof rx rz
    limits (-45.0 90.0)
           (-20.0 70.0)
  end
  begin
     id 10 
     name rtoes
     direction -1.53733e-011 -4.21932e-011 1   
     length 1.24596   
     axis -90 -7.62852e-016 -20   XYZ
    dof rx
    limits (-90.0 20.0)
  end
  begin
     id 11 
     name lowerback
     direction 0.0235427 0.999023 -0.0374125   
     length 2.21768   
     axis 0 0 0   XYZ
    dof rx ry rz
    limits (-20.0 45.0)
           (-30.0 30.0)
           (-30.0 30.0)
  end
  begin
     id 12 
     name upperback
     direction 0.0302156 0.996818 -0.073759   
     length 2.20352   
     axis 0 0 0   XYZ
    dof rx ry rz
    limits (-20.0 45.0)
           (-30.0 30.0)
           (-30.0 30.0)
  end
  begin
     id 13 
     name thorax
     direction 0.0187169 0.998235 -0.0563532   
     length 2.22103   
     axis 0 0 0   XYZ
    dof rx ry rz
    limits (-20.0 45.0)
           (-30.0 30.0)
           (-30.0 30.0)
  end
  begin
     id 14 
     name lowerneck
     direction -0.119528 0.987423 0.103481   
     length 1.72948   
     axis 0 0 0   XYZ
    dof rx ry rz
    limits (-20.0 45.0)
           (-30.0 30.0)
           (-30.0 30.0)
  end
  begin
     id 15 
     name upperneck
     direction 0.248049 0.963095 -0.104496   
     length 1.74979   
     axis 0 0 0   XYZ
    dof rx ry rz
    limits (-20.0 45.0)
           (-30.0 30.0)
           (-30.0 30.0)
  end
  begin
     id 16
     name head
     direction 0.0903589 0.994284 -0.056876  
     length 1.78268  
     axis 0 0 0   XYZ
    dof rx ry rz
    limits (-20.0 45.0)
           (-30.0 30.0)
           (-30.0 30.0)
  end
  begin
     id 17 
     name lclavicle
     direction 0.946008 0.242039 -0.215608  
     length 3.80783  
     axis 0 0 0   XYZ
    dof ry rz
    limits (-20.0 10.0)
           (0.0 20.0)
  end
  begin
     id 18 
     name lhumerus
     direction 1 -4.48991e-011 -2.25695e-027   
     length 4.83125   
     axis 180 -30 -90   XYZ
    dof rx ry rz
    limits (-60.0 90.0)
           (-90.0 90.0)
           (-90.0 90.0)
  end
  begin
     id 19
     name lradius
     direction 0.999991 0.00366712 -0.00211721   
     length 3.00391   
     axis 180 -30 -90   XYZ
    dof rx
    limits (-10.0 170.0)
  end
  begin
     id 20
     name lwrist
     direction 0.999991 0.00393016 -0.00141978   
     length 1.50195   
     axis -1.00488e-014 90 90   XYZ
    dof ry
    limits (-180.0 0.0)
 end
  begin
     id 21 
     name lhand
     direction 1 -4.49123e-011 2.72098e-026   
     length 1.2717   
     axis -1.73687e-014 90 90   XYZ
    dof rx rz
    limits (-90.0 90.0)
           (-45.0 45.0)
  end
  begin
     id 22 
     name lfingers
     direction 1 -4.48678e-011 5.4479e-026   
     length 1.02528   
     axis -3.47372e-014 90 90   XYZ
    dof rx
    limits (0.0 90.0)
  end
  begin
     id 23
     name lthumb
     direction 0.707107 -6.34851e-011 0.707107   
     length 1.4721   
     axis -90 45 -1.62303e-014   XYZ
    dof rx rz
    limits (-45.0 45.0)
           (-45.0 45.0)
  end
  begin
     id 24 
     name rclavicle
     direction -0.981723 0.189447 -0.0181673   
     length 3.74989  
     axis 0 0 0   XYZ 
    dof ry rz
    limits (-10.0 20.0)
           (-20.0 0.0)
  end
  begin
     id 25 
     name rhumerus
     direction -1 -4.48985e-011 2.38206e-027  
     length 4.61118   
     axis 180 30 90   XYZ
    dof rx ry rz
    limits (-90.0 60.0)
           (-90.0 90.0)
           (-90.0 90.0)
  end
  begin
     id 26 
     name rradius
     direction -1 -4.48977e-011 7.41019e-027   
     length 2.91491   
     axis 180 30 90   XYZ
    dof rx
    limits (-10.0 170.0)
  end
  begin
     id 27 
     name rwrist
     direction -1 -4.48549e-011 1.3624e-026   
     length 1.45745   
     axis -1.00488e-014 -90 -90   XYZ
    dof ry
    limits (-180.0 0.0)
  end
  begin
     id 28
     name rhand
     direction -1 -4.49107e-011 2.72109e-026   
     length 1.30769   
     axis -1.73687e-014 -90 -90   XYZ
    dof rx rz
    limits (-90.0 90.0)
           (-45.0 45.0)
  end
  begin
     id 29
     name rfingers
     direction -1 -4.48919e-011 5.44468e-026   
     length 1.05429   
     axis -3.47372e-014 -90 -90   XYZ
    dof rx
    limits (0.0 90.0)
  end
  begin
     id 30
     name rthumb
     direction -0.707107 -6.35315e-011 0.707107   
     length 1.51376   
     axis -90 -45 1.62303e-014   XYZ
    dof rx rz
    limits (-45.0 45.0)
           (-45.0 45.0)
  end
:hierarchy
  begin
    root lhipjoint rhipjoint lowerback
    lhipjoint lfemur
    lfemur ltibia
    ltibia lfoot
    lfoot ltoes
    rhipjoint rfemur
    rfemur rtibia
    rtibia rfoot
    rfoot rtoes
    lowerback upperback
    upperback thorax
    thorax lowerneck lclavicle rclavicle
    lowerneck upperneck
    upperneck head
    lclavicle lhumerus
    lhumerus lradius
    lradius lwrist
    lwrist lhand lthumb
    lhand lfingers
    rclavicle rhumerus
    rhumerus rradius
    rradius rwrist
    rwrist rhand rthumb
    rhand rfingers
  end

#!OML:ASF X:\für Bonn\!DataBase\2005_08_11_Bastian_Final\c3d\Bastian.ASF
:FULLY-SPECIFIED
:DEGREES
16
root -7.29249 16.9298 1.60884 172.691 -5.34543 -173.778
lowerback 9.22777 -4.84567 -1.17266
upperback 6.05895 -7.32018 3.00277
thorax 1.70867 -4.09228 4.27864
lowerneck -6.02659 -5.46821 1.42088
upperneck -9.56813 -6.46444 4.49817
head -1.87778 -3.06801 1.15115
rclavicle -2.52208e-014 1.89342e-014
rhumerus -414.461 13.1418 -459.44
rradius 86.1358
rwrist -30.1163
rhand -40.2215 727.857
rfingers 7.12502
rthumb -13.1813 -21.7061
lclavicle -2.52208e-014 1.89342e-014
lhumerus -24.904 -18.6557 88.3282
lradius 75.2978
lwrist -144.523
lhand -33.713 7.87363
lfingers 7.12502
lthumb -6.90248 37.7411
rfemur -21.6218 -25.7643 30.1886
rtibia 49.4474
rfoot -19.9291 -30.3314
rtoes 7.58077
lfemur 16.9134 12.5696 -13.0527
ltibia 23.9942
lfoot -25.5668 3.45775
ltoes -20.7549
17
root -7.27795 16.9085 1.68942 172.36 -6.04969 -173.896
lowerback 9.7194 -4.74211 -1.34105
upperback 6.18386 -7.21475 2.90761
thorax 1.57077 -4.05196 4.31248
lowerneck -5.95384 -5.76462 1.33969
upperneck -9.79765 -6.80618 4.81342
head -1.94614 -3.23484 1.2699
rclavicle 6.02566e-014 -2.70347e-014
rhumerus -414.058 13.5581 -459.675
rradius 86.5352
rwrist -29.6211
rhand -40.282 728.288
rfingers 7.12502
rthumb -13.2397 -21.272
lclavicle 6.02566e-014 -2.70347e-014
lhumerus -23.843 -19.3021 87.9136
lradius 75.7548
lwrist -144.36
lhand -33.8258 7.69505
lfingers 7.12502
lthumb -7.01142 37.5589
rfemur -21.928 -25.4308 29.6966
rtibia 50.4092
rfoot -18.6048 -29.7125
rtoes 5.54599
lfemur 16.7421 12.2737 -13.0734
ltibia 24.3446
lfoot -26.0694 2.84144
ltoes -20.122
18
root -7.26631 16.8894 1.76724 172.012 -6.62022 -173.998
lowerback 10.2285 -4.59814 -1.42255
upperback 6.30074 -7.04996 2.79684
thorax 1.39747 -3.97801 4.27972
lowerneck -5.87892 -6.07429 1.25295
upperneck -9.99701 -7.16717 5.14312
head -2.00277 -3.41186 1.39414
rclavicle -8.63471e-015 -3.18055e-015
rhumerus -413.706 13.9772 -459.928
rradius 86.9363
rwrist -29.0959
rhand -40.3444 728.706
rfingers 7.12502
rthumb -13.2998 -20.8499
lclavicle -8.63471e-015 -3.18055e-015
lhumerus -22.845 -19.9532 87.5049
lradius 76.2671
lwrist -144.175
lhand -33.8935 7.48314
lfingers 7.12502
lthumb -7.07674 37.3448
rfemur -22.2309 -25.0054 29.2058
rtibia 51.4399
rfoot -17.3351 -28.9643
rtoes 3.59939
lfemur 16.6168 12.03 -13.094
ltibia 24.7081
lfoot -26.5309 2.25245
ltoes -19.449
19
root -7.25677 16.8705 1.84326 171.641 -7.0817 -174.099
lowerback 10.7594 -4.41158 -1.48909
upperback 6.43662 -6.83619 2.70926
thorax 1.23031 -3.88289 4.25784
lowerneck -5.85691 -6.38978 1.13165
upperneck -10.1882 -7.5336 5.47844
head -2.04463 -3.58886 1.52427
rclavicle 6.39962e-014 -3.18055e-014
rhumerus -413.313 14.4884 -460.108
rradius 87.348
rwrist -28.5477
rhand -40.3867 729.033
rfingers 7.12502
rthumb -13.3405 -20.5204
lclavicle 6.39962e-014 -3.18055e-014
lhumerus -21.8021 -20.5233 87.1298
lradius 76.8088
lwrist -144.043
lhand -33.971 7.30117
lfingers 7.12502
lthumb -7.15159 37.1603
rfemur -22.5105 -24.3378 28.6755
rtibia 52.5238
rfoot -16.4064 -28.0744
rtoes 2.40226
lfemur 16.5549 11.8352 -13.1234
ltibia 25.0445
lfoot -26.9369 1.75507
ltoes -18.7746
20
root -7.24866 16.8538 1.91586 171.274 -7.46432 -174.181
lowerback 11.2632 -4.21641 -1.51529
upperback 6.5759 -6.6106 2.62988
thorax 1.07788 -3.78183 4.21537
lowerneck -5.91517 -6.67879 1.04282
upperneck -10.2985 -7.87733 5.75846
head -2.0486 -3.75352 1.62642
rclavicle -6.59965e-014 3.60794e-014
rhumerus -412.899 15.0392 -460.291
rradius 87.7555
rwrist -27.9736
rhand -40.3627 729.36
rfingers 7.12502
rthumb -13.3174 -20.1947
lclavicle -6.59965e-014 3.60794e-014
lhumerus -20.7436 -21.0528 86.7558
lradius 77.3353
lwrist -143.83
lhand -33.9483 7.16117
lfingers 7.12502
lthumb -7.1297 37.0211
rfemur -22.7865 -23.5679 28.1433
rtibia 53.6059
rfoot -15.5622 -27.1065
rtoes 1.55838
lfemur 16.5261 11.654 -13.1503
ltibia 25.3406
lfoot -27.2963 1.25733
ltoes -17.9495
21
root -7.23927 16.8402 1.98565 170.882 -7.86346 -174.31
lowerback 11.8045 -4.00515 -1.58111
upperback 6.71711 -6.36902 2.52997
thorax 0.908943 -3.67351 4.17276
lowerneck -5.98513 -7.00134 0.912751
upperneck -10.4084 -8.25697 6.12111
head -2.04301 -3.93452 1.76053
rclavicle -4.60683e-014 3.73715e-014
rhumerus -412.429 15.5716 -460.432
rradius 88.1258
rwrist -27.312
rhand -40.3241 729.625
rfingers 7.12502
rthumb -13.2802 -19.932
lclavicle -4.60683e-014 3.73715e-014
lhumerus -19.6645 -21.5893 86.4027
lradius 77.8354
lwrist -143.644
lhand -33.8719 7.02309
lfingers 7.12502
lthumb -7.05591 36.8855
rfemur -22.9862 -22.7019 27.5249
rtibia 54.6395
rfoot -14.8768 -26.0973
rtoes 1.45924
lfemur 16.5697 11.4041 -13.252
ltibia 25.5712
lfoot -27.5543 0.806565
ltoes -17.0069
